<mxfile host="drawio-plugin" modified="2024-01-11T17:52:15.978Z" agent="5.0 (Windows NT 6.2; Win64; x64) AppleWebKit/537.36 (KHTML, like Gecko) Chrome/104.0.5112.102 Safari/537.36" etag="NameFuTKniDvP9PJS3ta" version="20.5.3" type="embed"><diagram id="KzpM3yD9fBf-ZHVZeGeD" name="Page-1"><mxGraphModel dx="652" dy="563" grid="1" gridSize="10" guides="1" tooltips="1" connect="1" arrows="1" fold="1" page="1" pageScale="1" pageWidth="850" pageHeight="1100" math="0" shadow="0"><root><mxCell id="0"/><mxCell id="1" parent="0"/><mxCell id="19" value="«interface»&lt;br&gt;&lt;b&gt;IceFactory&lt;/b&gt;" style="html=1;fillColor=#60a917;fontColor=#ffffff;strokeColor=#2D7600;" vertex="1" parent="1"><mxGeometry x="235" y="20" width="175" height="30" as="geometry"/></mxCell><mxCell id="20" value="&lt;p style=&quot;margin: 4px 0px 0px;&quot;&gt;+ method: createIceCr()&amp;nbsp; &amp;nbsp;IceCr&lt;br&gt;&lt;br&gt;&lt;/p&gt;" style="verticalAlign=top;align=left;overflow=fill;fontSize=12;fontFamily=Helvetica;html=1;fillColor=#6d8764;fontColor=#ffffff;strokeColor=#3A5431;" vertex="1" parent="1"><mxGeometry x="235" y="50" width="175" height="20" as="geometry"/></mxCell><mxCell id="21" value="AppleIceFactory" style="swimlane;fontStyle=1;align=center;verticalAlign=top;childLayout=stackLayout;horizontal=1;startSize=26;horizontalStack=0;resizeParent=1;resizeParentMax=0;resizeLast=0;collapsible=1;marginBottom=0;fillColor=#1ba1e2;fontColor=#ffffff;strokeColor=#006EAF;" vertex="1" parent="1"><mxGeometry x="40" y="90" width="180" height="46" as="geometry"/></mxCell><mxCell id="27" value="&lt;p style=&quot;margin: 4px 0px 0px;&quot;&gt;+ method: createIceCr()&amp;nbsp; &amp;nbsp;IceCr&lt;br&gt;&lt;br&gt;&lt;/p&gt;" style="verticalAlign=top;align=left;overflow=fill;fontSize=12;fontFamily=Helvetica;html=1;fillColor=#6d8764;fontColor=#ffffff;strokeColor=#3A5431;" vertex="1" parent="21"><mxGeometry y="26" width="180" height="20" as="geometry"/></mxCell><mxCell id="24" value="ChocoFactory" style="swimlane;fontStyle=1;align=center;verticalAlign=top;childLayout=stackLayout;horizontal=1;startSize=26;horizontalStack=0;resizeParent=1;resizeParentMax=0;resizeLast=0;collapsible=1;marginBottom=0;fillColor=#1ba1e2;fontColor=#ffffff;strokeColor=#006EAF;" vertex="1" parent="1"><mxGeometry x="440" y="100" width="180" height="46" as="geometry"/></mxCell><mxCell id="28" value="&lt;p style=&quot;margin: 4px 0px 0px;&quot;&gt;+ method: createIceCr()&amp;nbsp; &amp;nbsp;IceCr&lt;br&gt;&lt;br&gt;&lt;/p&gt;" style="verticalAlign=top;align=left;overflow=fill;fontSize=12;fontFamily=Helvetica;html=1;fillColor=#6d8764;fontColor=#ffffff;strokeColor=#3A5431;" vertex="1" parent="24"><mxGeometry y="26" width="180" height="20" as="geometry"/></mxCell><mxCell id="31" value="" style="endArrow=block;dashed=1;endFill=0;endSize=12;html=1;rounded=0;fillColor=#60a917;strokeColor=#80FF00;" edge="1" parent="1"><mxGeometry width="160" relative="1" as="geometry"><mxPoint x="180.1400000000001" y="66" as="sourcePoint"/><mxPoint x="231.18000000000006" y="40" as="targetPoint"/><Array as="points"><mxPoint x="180" y="66.39999999999998"/><mxPoint x="130" y="90"/></Array></mxGeometry></mxCell><mxCell id="32" value="" style="endArrow=block;dashed=1;endFill=0;endSize=12;html=1;rounded=0;fillColor=#60a917;strokeColor=#80FF00;exitX=0.44;exitY=0.022;exitDx=0;exitDy=0;exitPerimeter=0;" edge="1" parent="1" source="24"><mxGeometry width="160" relative="1" as="geometry"><mxPoint x="480.1400000000001" y="126" as="sourcePoint"/><mxPoint x="410" y="50" as="targetPoint"/><Array as="points"><mxPoint x="520" y="100"/></Array></mxGeometry></mxCell><mxCell id="35" value="«interface»&lt;br&gt;&lt;b&gt;IceCr&lt;/b&gt;" style="html=1;fillColor=#60a917;fontColor=#ffffff;strokeColor=#2D7600;" vertex="1" parent="1"><mxGeometry x="239" y="200" width="135" height="30" as="geometry"/></mxCell><mxCell id="36" value="&lt;p style=&quot;margin: 4px 0px 0px;&quot;&gt;+ method: eat()&amp;nbsp; &amp;nbsp; &amp;nbsp; &amp;nbsp; void&lt;br&gt;&lt;br&gt;&lt;/p&gt;" style="verticalAlign=top;align=left;overflow=fill;fontSize=12;fontFamily=Helvetica;html=1;fillColor=#6d8764;fontColor=#ffffff;strokeColor=#3A5431;" vertex="1" parent="1"><mxGeometry x="239" y="230" width="135" height="20" as="geometry"/></mxCell><mxCell id="40" value="IceCream" style="swimlane;fontStyle=1;align=center;verticalAlign=top;childLayout=stackLayout;horizontal=1;startSize=26;horizontalStack=0;resizeParent=1;resizeParentMax=0;resizeLast=0;collapsible=1;marginBottom=0;fillColor=#1ba1e2;fontColor=#ffffff;strokeColor=#006EAF;" vertex="1" parent="1"><mxGeometry x="40" y="250" width="180" height="70" as="geometry"/></mxCell><mxCell id="41" value="+ field: flavor                    String" style="text;strokeColor=#432D57;fillColor=#76608a;align=left;verticalAlign=top;spacingLeft=4;spacingRight=4;overflow=hidden;rotatable=0;points=[[0,0.5],[1,0.5]];portConstraint=eastwest;fontColor=#ffffff;" vertex="1" parent="40"><mxGeometry y="26" width="180" height="22" as="geometry"/></mxCell><mxCell id="48" value="+ field: cost                       int" style="text;strokeColor=#432D57;fillColor=#76608a;align=left;verticalAlign=top;spacingLeft=4;spacingRight=4;overflow=hidden;rotatable=0;points=[[0,0.5],[1,0.5]];portConstraint=eastwest;fontColor=#ffffff;" vertex="1" parent="40"><mxGeometry y="48" width="180" height="22" as="geometry"/></mxCell><mxCell id="44" value="IceCrLover" style="swimlane;fontStyle=1;align=center;verticalAlign=top;childLayout=stackLayout;horizontal=1;startSize=26;horizontalStack=0;resizeParent=1;resizeParentMax=0;resizeLast=0;collapsible=1;marginBottom=0;fillColor=#1ba1e2;fontColor=#ffffff;strokeColor=#006EAF;" vertex="1" parent="1"><mxGeometry x="360" y="331" width="240" height="52" as="geometry"/></mxCell><mxCell id="47" value="+ method: enjoyIceCream(IceFactory) void" style="text;strokeColor=#006EAF;fillColor=#6D8764;align=left;verticalAlign=top;spacingLeft=4;spacingRight=4;overflow=hidden;rotatable=0;points=[[0,0.5],[1,0.5]];portConstraint=eastwest;fontColor=#FFFFFF;" vertex="1" parent="44"><mxGeometry y="26" width="240" height="26" as="geometry"/></mxCell><mxCell id="50" value="" style="endArrow=block;dashed=1;endFill=0;endSize=12;html=1;rounded=0;fillColor=#60a917;strokeColor=#80FF00;" edge="1" parent="1"><mxGeometry width="160" relative="1" as="geometry"><mxPoint x="190.1400000000001" y="246" as="sourcePoint"/><mxPoint x="241.18000000000006" y="220" as="targetPoint"/><Array as="points"><mxPoint x="190" y="246.39999999999998"/></Array></mxGeometry></mxCell><mxCell id="52" value="&lt;p style=&quot;margin: 4px 0px 0px;&quot;&gt;+ method: eat()&amp;nbsp; &amp;nbsp; &amp;nbsp; &amp;nbsp; void&lt;br&gt;&lt;br&gt;&lt;/p&gt;" style="verticalAlign=top;align=left;overflow=fill;fontSize=12;fontFamily=Helvetica;html=1;fillColor=#6d8764;fontColor=#ffffff;strokeColor=#3A5431;" vertex="1" parent="1"><mxGeometry x="40" y="320" width="180" height="20" as="geometry"/></mxCell></root></mxGraphModel></diagram></mxfile>